# xmcd
#
# Track frame offsets:
# 150
# 14945
# 39488
# 53808
# 73878
# 86679
# 106394
# 120611
# 132069
# 146941
# 191069
# 205865
# 230408
# 244729
# 264797
# 277597
# 297315
# 311529
#
# Disc length: 4305 seconds
#
# Revision: 0
# Processed by: cddbd v1.4PL0 Copyright (c) Steve Scherf et al.
# Submitted via: Audion 3.0.2 (http://www.panic.com/audion/)
#
DISCID=0d10cf12
DTITLE=MÁRTIRES DEL COMPÁS - Mordiendo el duende  
DYEAR=1900
DGENRE=
TTITLE0=tu hielo
TTITLE1=soleares del tetabrí
TTITLE2=el tangao
TTITLE3=pañuelos blancos
TTITLE4=rigui martir
TTITLE5=maltratada
TTITLE6=oye el libro
TTITLE7=peluqueros
TTITLE8=la lava tóxica
TTITLE9=por el centro
TTITLE10=tu hielo
TTITLE11=soleares del tetabrí
TTITLE12=el tangao
TTITLE13=pañuelos blancos
TTITLE14=rigui martir
TTITLE15=maltratada
TTITLE16=oye el libro
TTITLE17=peluqueros
EXTD=
EXTT0=
EXTT1=
EXTT2=
EXTT3=
EXTT4=
EXTT5=
EXTT6=
EXTT7=
EXTT8=
EXTT9=
EXTT10=
EXTT11=
EXTT12=
EXTT13=
EXTT14=
EXTT15=
EXTT16=
EXTT17=
PLAYORDER=
